{"title":"24 (2016) - DVDSCR - TC Rip - 1CD - MP4 - Tamil -Team TMR","uid":14548218,"size":742866062,"categoryP":"video","categoryS":"movies","magnet":"?xt=urn:btih:9ae174210f852e6eeacafe66702a635d7ba9790d&amp;dn=24+%282016%29+-+DVDSCR+-+TC+Rip+-+1CD+-+MP4+-+Tamil+-Team+TMR&amp;tr=udp%3A%2F%2Ftracker.leechers-paradise.org%3A6969&amp;tr=udp%3A%2F%2Fzer0day.ch%3A1337&amp;tr=udp%3A%2F%2Fopen.demonii.com%3A1337&amp;tr=udp%3A%2F%2Ftracker.coppersurfer.tk%3A6969&amp;tr=udp%3A%2F%2Fexodus.desync.com%3A6969","seeders":1,"leechers":0,"uploader":"CDRiPD","files":3,"time":1462611954,"description":"24 (2016) - DVDSCR - TC Rip - 1CD - MP4 - Tamil -Team TMR\r\n\r\n\r\nGeneral\r\nFormat                                   : MPEG-4\r\nFormat profile                           : Base Media\r\nCodec ID                                 : isom (isom/avc1/iso6)\r\nFile size                                : 701 MiB\r\nDuration                                 : 2h 41mn\r\nOverall bit rate                         : 608 Kbps\r\n\r\nVideo\r\nID                                       : 1\r\nFormat                                   : AVC\r\nFormat/Info                              : Advanced Video Codec\r\nFormat profile                           :   \r\nFormat settings, CABAC                   : Yes\r\nFormat settings, ReFrames                : 3 frames\r\nCodec ID                                 : avc1\r\nCodec ID/Info                            : Advanced Video Coding\r\nDuration                                 : 2h 41mn\r\nBit rate                                 : 477 Kbps\r\nMaximum bit rate                         : 3 148 Kbps\r\nWidth                                    : 688 pixels\r\nHeight                                   : 288 pixels\r\nDisplay aspect ratio                     : 2.35:1\r\nOriginal display aspect ratio            : 2.35:1\r\nFrame rate mode                          : Constant\r\nFrame rate                               : 25.000 fps\r\nColor space                              : YUV\r\nChroma subsampling                       : 4:2:0\r\nBit depth                                : 8 bits\r\nScan type                                : Progressive\r\nBits/(Pixel*Frame)                       : 0.096\r\nStream size                              : 549 MiB (78%)\r\nWriting library                          : x264 core 148 r2638 7599210\r\n\r\nAudio\r\nID                                       : 2\r\nFormat                                   : MPEG Audio\r\nFormat version                           : Version 2\r\nFormat profile                           : Layer 3\r\nMode                                     : Joint stereo\r\nCodec ID                                 : .mp3\r\nDuration                                 : 2h 41mn\r\nBit rate mode                            : Constant\r\nBit rate                                 : 128 Kbps\r\nMaximum bit rate                         : 134 Kbps\r\nChannel(s)                               : 2 channels\r\nSampling rate                            : 22.05 KHz\r\nCompression mode                         : Lossy\r\nStream size                              : 147 MiB (21%)\r\nLanguage                                 : Tamil\r\n\r\n \nhttps://ititli.com/X5z \nhttps://ititli.com/X5I \nhttps://ititli.com/X5O \nhttps://ititli.com/XB9 \nhttps://ititli.com/XBX \nhttps://ititli.com/XBq \nhttps://ititli.com/XBr \nhttps://ititli.com/XB1 \nhttps://ititli.com/XBT \nhttps://ititli.com/XBW \nhttps://ititli.com/XBg \nhttps://ititli.com/XBn","torrent":{"xt":"urn:btih:9ae174210f852e6eeacafe66702a635d7ba9790d","amp;dn":"24+%282016%29+-+DVDSCR+-+TC+Rip+-+1CD+-+MP4+-+Tamil+-Team+TMR","amp;tr":["udp%3A%2F%2Ftracker.leechers-paradise.org%3A6969","udp%3A%2F%2Fzer0day.ch%3A1337","udp%3A%2F%2Fopen.demonii.com%3A1337","udp%3A%2F%2Ftracker.coppersurfer.tk%3A6969","udp%3A%2F%2Fexodus.desync.com%3A6969"],"infoHash":"9ae174210f852e6eeacafe66702a635d7ba9790d","infoHashBuffer":{"type":"Buffer","data":[154,225,116,33,15,133,46,110,234,202,254,102,112,42,99,93,123,169,121,13]},"announce":[],"urlList":[]}}